<mxfile host="app.diagrams.net" modified="2023-03-26T13:54:25.553Z" agent="Mozilla/5.0 (Windows NT 10.0; Win64; x64) AppleWebKit/537.36 (KHTML, like Gecko) Chrome/111.0.0.0 Safari/537.36" etag="0m-7e4zh7YhxniWQOGdK" version="21.1.1" type="device">
  <diagram name="Page-1" id="b0irJ2Ld0itVuvz3d0gq">
    <mxGraphModel dx="1232" dy="1142" grid="1" gridSize="10" guides="1" tooltips="1" connect="1" arrows="1" fold="1" page="1" pageScale="1" pageWidth="827" pageHeight="1169" math="0" shadow="0">
      <root>
        <mxCell id="0" />
        <mxCell id="1" parent="0" />
        <mxCell id="92K4Akr5qivPyy2-ghK2-1" value="&lt;div style=&quot;font-family: Consolas, &amp;quot;Courier New&amp;quot;, monospace; font-size: 18px; line-height: 24px;&quot;&gt;&lt;br&gt;&lt;/div&gt;" style="text;html=1;align=center;verticalAlign=middle;resizable=0;points=[];autosize=1;strokeColor=none;fillColor=none;" vertex="1" parent="1">
          <mxGeometry x="712" y="40" width="20" height="40" as="geometry" />
        </mxCell>
        <mxCell id="92K4Akr5qivPyy2-ghK2-2" value="Создадим метод заполнения массива,&lt;br&gt;&amp;nbsp;в качестве параметра примем количество элементов в массиве" style="text;html=1;align=center;verticalAlign=middle;resizable=0;points=[];autosize=1;strokeColor=none;fillColor=none;" vertex="1" parent="1">
          <mxGeometry x="432" y="20" width="380" height="40" as="geometry" />
        </mxCell>
        <mxCell id="92K4Akr5qivPyy2-ghK2-6" value="" style="edgeStyle=orthogonalEdgeStyle;rounded=0;orthogonalLoop=1;jettySize=auto;html=1;" edge="1" parent="1" source="92K4Akr5qivPyy2-ghK2-3" target="92K4Akr5qivPyy2-ghK2-4">
          <mxGeometry relative="1" as="geometry" />
        </mxCell>
        <mxCell id="92K4Akr5qivPyy2-ghK2-3" value="start (lenth)" style="rounded=1;whiteSpace=wrap;html=1;" vertex="1" parent="1">
          <mxGeometry x="568" y="80" width="90" height="40" as="geometry" />
        </mxCell>
        <mxCell id="92K4Akr5qivPyy2-ghK2-8" value="" style="edgeStyle=orthogonalEdgeStyle;rounded=0;orthogonalLoop=1;jettySize=auto;html=1;" edge="1" parent="1" source="92K4Akr5qivPyy2-ghK2-4" target="92K4Akr5qivPyy2-ghK2-7">
          <mxGeometry relative="1" as="geometry" />
        </mxCell>
        <mxCell id="92K4Akr5qivPyy2-ghK2-4" value="array =&amp;nbsp; new aray(lenth)" style="rounded=0;whiteSpace=wrap;html=1;" vertex="1" parent="1">
          <mxGeometry x="553" y="160" width="120" height="60" as="geometry" />
        </mxCell>
        <mxCell id="92K4Akr5qivPyy2-ghK2-10" value="" style="edgeStyle=orthogonalEdgeStyle;rounded=0;orthogonalLoop=1;jettySize=auto;html=1;" edge="1" parent="1" source="92K4Akr5qivPyy2-ghK2-7" target="92K4Akr5qivPyy2-ghK2-9">
          <mxGeometry relative="1" as="geometry" />
        </mxCell>
        <mxCell id="92K4Akr5qivPyy2-ghK2-7" value="i = 0;&lt;br&gt;i &amp;lt; lenth;&lt;br&gt;i++" style="rhombus;whiteSpace=wrap;html=1;" vertex="1" parent="1">
          <mxGeometry x="573" y="260" width="80" height="80" as="geometry" />
        </mxCell>
        <mxCell id="92K4Akr5qivPyy2-ghK2-9" value="array[i]" style="shape=parallelogram;perimeter=parallelogramPerimeter;whiteSpace=wrap;html=1;fixedSize=1;" vertex="1" parent="1">
          <mxGeometry x="553" y="380" width="120" height="60" as="geometry" />
        </mxCell>
        <mxCell id="92K4Akr5qivPyy2-ghK2-11" value="" style="endArrow=classic;html=1;rounded=0;exitX=0;exitY=0.5;exitDx=0;exitDy=0;entryX=0;entryY=0.5;entryDx=0;entryDy=0;" edge="1" parent="1" source="92K4Akr5qivPyy2-ghK2-9" target="92K4Akr5qivPyy2-ghK2-7">
          <mxGeometry width="50" height="50" relative="1" as="geometry">
            <mxPoint x="902" y="510" as="sourcePoint" />
            <mxPoint x="952" y="460" as="targetPoint" />
            <Array as="points">
              <mxPoint x="542" y="410" />
              <mxPoint x="542" y="300" />
            </Array>
          </mxGeometry>
        </mxCell>
        <mxCell id="92K4Akr5qivPyy2-ghK2-12" value="yes" style="text;html=1;align=center;verticalAlign=middle;resizable=0;points=[];autosize=1;strokeColor=none;fillColor=none;" vertex="1" parent="1">
          <mxGeometry x="612" y="340" width="40" height="30" as="geometry" />
        </mxCell>
        <mxCell id="92K4Akr5qivPyy2-ghK2-16" value="" style="edgeStyle=orthogonalEdgeStyle;rounded=0;orthogonalLoop=1;jettySize=auto;html=1;" edge="1" parent="1" source="92K4Akr5qivPyy2-ghK2-13" target="92K4Akr5qivPyy2-ghK2-15">
          <mxGeometry relative="1" as="geometry" />
        </mxCell>
        <mxCell id="92K4Akr5qivPyy2-ghK2-13" value="return array" style="rounded=0;whiteSpace=wrap;html=1;" vertex="1" parent="1">
          <mxGeometry x="553" y="480" width="120" height="60" as="geometry" />
        </mxCell>
        <mxCell id="92K4Akr5qivPyy2-ghK2-14" value="" style="endArrow=classic;html=1;rounded=0;exitX=1;exitY=0.5;exitDx=0;exitDy=0;entryX=1;entryY=0.5;entryDx=0;entryDy=0;" edge="1" parent="1" source="92K4Akr5qivPyy2-ghK2-7" target="92K4Akr5qivPyy2-ghK2-13">
          <mxGeometry width="50" height="50" relative="1" as="geometry">
            <mxPoint x="902" y="510" as="sourcePoint" />
            <mxPoint x="952" y="460" as="targetPoint" />
            <Array as="points">
              <mxPoint x="712" y="300" />
              <mxPoint x="712" y="510" />
            </Array>
          </mxGeometry>
        </mxCell>
        <mxCell id="92K4Akr5qivPyy2-ghK2-15" value="End" style="rounded=1;whiteSpace=wrap;html=1;" vertex="1" parent="1">
          <mxGeometry x="553" y="580" width="120" height="60" as="geometry" />
        </mxCell>
        <mxCell id="92K4Akr5qivPyy2-ghK2-17" value="Создадим метод вывода массива,&lt;br&gt;&amp;nbsp;в качестве параметра примем массив" style="text;html=1;align=center;verticalAlign=middle;resizable=0;points=[];autosize=1;strokeColor=none;fillColor=none;" vertex="1" parent="1">
          <mxGeometry x="502" y="660" width="240" height="40" as="geometry" />
        </mxCell>
        <mxCell id="92K4Akr5qivPyy2-ghK2-18" value="" style="edgeStyle=orthogonalEdgeStyle;rounded=0;orthogonalLoop=1;jettySize=auto;html=1;" edge="1" parent="1" source="92K4Akr5qivPyy2-ghK2-19" target="92K4Akr5qivPyy2-ghK2-21">
          <mxGeometry relative="1" as="geometry" />
        </mxCell>
        <mxCell id="92K4Akr5qivPyy2-ghK2-19" value="start (aray)" style="rounded=1;whiteSpace=wrap;html=1;" vertex="1" parent="1">
          <mxGeometry x="563" y="700" width="90" height="40" as="geometry" />
        </mxCell>
        <mxCell id="92K4Akr5qivPyy2-ghK2-20" value="" style="edgeStyle=orthogonalEdgeStyle;rounded=0;orthogonalLoop=1;jettySize=auto;html=1;" edge="1" parent="1" source="92K4Akr5qivPyy2-ghK2-21" target="92K4Akr5qivPyy2-ghK2-23">
          <mxGeometry relative="1" as="geometry" />
        </mxCell>
        <mxCell id="92K4Akr5qivPyy2-ghK2-21" value="lenth =&amp;nbsp; array.lenth" style="rounded=0;whiteSpace=wrap;html=1;" vertex="1" parent="1">
          <mxGeometry x="548" y="780" width="120" height="60" as="geometry" />
        </mxCell>
        <mxCell id="92K4Akr5qivPyy2-ghK2-22" value="" style="edgeStyle=orthogonalEdgeStyle;rounded=0;orthogonalLoop=1;jettySize=auto;html=1;" edge="1" parent="1" source="92K4Akr5qivPyy2-ghK2-23">
          <mxGeometry relative="1" as="geometry">
            <mxPoint x="608" y="1000" as="targetPoint" />
          </mxGeometry>
        </mxCell>
        <mxCell id="92K4Akr5qivPyy2-ghK2-23" value="i = 0;&lt;br&gt;i &amp;lt; lenth;&lt;br&gt;i++" style="rhombus;whiteSpace=wrap;html=1;" vertex="1" parent="1">
          <mxGeometry x="568" y="880" width="80" height="80" as="geometry" />
        </mxCell>
        <mxCell id="92K4Akr5qivPyy2-ghK2-25" value="" style="endArrow=classic;html=1;rounded=0;exitX=0;exitY=0.5;exitDx=0;exitDy=0;entryX=0;entryY=0.5;entryDx=0;entryDy=0;" edge="1" parent="1" target="92K4Akr5qivPyy2-ghK2-23">
          <mxGeometry width="50" height="50" relative="1" as="geometry">
            <mxPoint x="558" y="1030" as="sourcePoint" />
            <mxPoint x="947" y="1080" as="targetPoint" />
            <Array as="points">
              <mxPoint x="537" y="1030" />
              <mxPoint x="537" y="920" />
            </Array>
          </mxGeometry>
        </mxCell>
        <mxCell id="92K4Akr5qivPyy2-ghK2-26" value="yes" style="text;html=1;align=center;verticalAlign=middle;resizable=0;points=[];autosize=1;strokeColor=none;fillColor=none;" vertex="1" parent="1">
          <mxGeometry x="607" y="960" width="40" height="30" as="geometry" />
        </mxCell>
        <mxCell id="92K4Akr5qivPyy2-ghK2-29" value="" style="endArrow=classic;html=1;rounded=0;exitX=1;exitY=0.5;exitDx=0;exitDy=0;entryX=1;entryY=0.5;entryDx=0;entryDy=0;" edge="1" parent="1" source="92K4Akr5qivPyy2-ghK2-23">
          <mxGeometry width="50" height="50" relative="1" as="geometry">
            <mxPoint x="897" y="1130" as="sourcePoint" />
            <mxPoint x="668" y="1130" as="targetPoint" />
            <Array as="points">
              <mxPoint x="707" y="920" />
              <mxPoint x="707" y="1130" />
            </Array>
          </mxGeometry>
        </mxCell>
        <mxCell id="92K4Akr5qivPyy2-ghK2-30" value="End" style="rounded=1;whiteSpace=wrap;html=1;" vertex="1" parent="1">
          <mxGeometry x="548" y="1100" width="120" height="60" as="geometry" />
        </mxCell>
        <mxCell id="92K4Akr5qivPyy2-ghK2-31" value="array[i]" style="shape=document;whiteSpace=wrap;html=1;boundedLbl=1;" vertex="1" parent="1">
          <mxGeometry x="557" y="1000" width="120" height="80" as="geometry" />
        </mxCell>
        <mxCell id="92K4Akr5qivPyy2-ghK2-32" value="Создадим метод который будет возвращать массив&lt;br&gt;&amp;nbsp;с элементами заданной длинной строки, &lt;br&gt;на вход&amp;nbsp; в качестве параметров получаем массив, &lt;br&gt;и длинну строки для отбора" style="text;html=1;align=center;verticalAlign=middle;resizable=0;points=[];autosize=1;strokeColor=none;fillColor=none;" vertex="1" parent="1">
          <mxGeometry x="10" y="10" width="310" height="70" as="geometry" />
        </mxCell>
        <mxCell id="92K4Akr5qivPyy2-ghK2-33" value="" style="edgeStyle=orthogonalEdgeStyle;rounded=0;orthogonalLoop=1;jettySize=auto;html=1;" edge="1" parent="1" source="92K4Akr5qivPyy2-ghK2-34" target="92K4Akr5qivPyy2-ghK2-36">
          <mxGeometry relative="1" as="geometry" />
        </mxCell>
        <mxCell id="92K4Akr5qivPyy2-ghK2-34" value="start (array, count)" style="rounded=1;whiteSpace=wrap;html=1;" vertex="1" parent="1">
          <mxGeometry x="66" y="80" width="90" height="40" as="geometry" />
        </mxCell>
        <mxCell id="92K4Akr5qivPyy2-ghK2-35" value="" style="edgeStyle=orthogonalEdgeStyle;rounded=0;orthogonalLoop=1;jettySize=auto;html=1;" edge="1" parent="1" source="92K4Akr5qivPyy2-ghK2-36" target="92K4Akr5qivPyy2-ghK2-38">
          <mxGeometry relative="1" as="geometry" />
        </mxCell>
        <mxCell id="92K4Akr5qivPyy2-ghK2-36" value="lenth =&amp;nbsp; array.lenth&lt;br&gt;targetArray =&amp;nbsp; new array(lenth)&lt;br&gt;targetCount =0" style="rounded=0;whiteSpace=wrap;html=1;" vertex="1" parent="1">
          <mxGeometry x="51" y="160" width="120" height="60" as="geometry" />
        </mxCell>
        <mxCell id="92K4Akr5qivPyy2-ghK2-37" value="" style="edgeStyle=orthogonalEdgeStyle;rounded=0;orthogonalLoop=1;jettySize=auto;html=1;" edge="1" parent="1" source="92K4Akr5qivPyy2-ghK2-38">
          <mxGeometry relative="1" as="geometry">
            <mxPoint x="111" y="380" as="targetPoint" />
          </mxGeometry>
        </mxCell>
        <mxCell id="92K4Akr5qivPyy2-ghK2-38" value="i = 0;&lt;br&gt;i &amp;lt; lenth;&lt;br&gt;i++" style="rhombus;whiteSpace=wrap;html=1;" vertex="1" parent="1">
          <mxGeometry x="71" y="260" width="80" height="80" as="geometry" />
        </mxCell>
        <mxCell id="92K4Akr5qivPyy2-ghK2-39" value="" style="endArrow=classic;html=1;rounded=0;exitX=0;exitY=0.5;exitDx=0;exitDy=0;entryX=0;entryY=0.5;entryDx=0;entryDy=0;" edge="1" parent="1" target="92K4Akr5qivPyy2-ghK2-38" source="92K4Akr5qivPyy2-ghK2-44">
          <mxGeometry width="50" height="50" relative="1" as="geometry">
            <mxPoint x="61" y="410" as="sourcePoint" />
            <mxPoint x="450" y="460" as="targetPoint" />
            <Array as="points">
              <mxPoint x="40" y="420" />
              <mxPoint x="40" y="300" />
            </Array>
          </mxGeometry>
        </mxCell>
        <mxCell id="92K4Akr5qivPyy2-ghK2-40" value="yes" style="text;html=1;align=center;verticalAlign=middle;resizable=0;points=[];autosize=1;strokeColor=none;fillColor=none;" vertex="1" parent="1">
          <mxGeometry x="110" y="340" width="40" height="30" as="geometry" />
        </mxCell>
        <mxCell id="92K4Akr5qivPyy2-ghK2-41" value="" style="endArrow=classic;html=1;rounded=0;exitX=1;exitY=0.5;exitDx=0;exitDy=0;" edge="1" parent="1" source="92K4Akr5qivPyy2-ghK2-38">
          <mxGeometry width="50" height="50" relative="1" as="geometry">
            <mxPoint x="400" y="510" as="sourcePoint" />
            <mxPoint x="110" y="600" as="targetPoint" />
            <Array as="points">
              <mxPoint x="210" y="300" />
              <mxPoint x="210" y="570" />
              <mxPoint x="110" y="570" />
            </Array>
          </mxGeometry>
        </mxCell>
        <mxCell id="92K4Akr5qivPyy2-ghK2-42" value="End" style="rounded=1;whiteSpace=wrap;html=1;" vertex="1" parent="1">
          <mxGeometry x="51" y="960" width="120" height="60" as="geometry" />
        </mxCell>
        <mxCell id="92K4Akr5qivPyy2-ghK2-47" value="" style="edgeStyle=orthogonalEdgeStyle;rounded=0;orthogonalLoop=1;jettySize=auto;html=1;" edge="1" parent="1" source="92K4Akr5qivPyy2-ghK2-44" target="92K4Akr5qivPyy2-ghK2-46">
          <mxGeometry relative="1" as="geometry" />
        </mxCell>
        <mxCell id="92K4Akr5qivPyy2-ghK2-44" value="arrai[i].lenth &amp;lt;= count" style="rhombus;whiteSpace=wrap;html=1;" vertex="1" parent="1">
          <mxGeometry x="70" y="380" width="80" height="80" as="geometry" />
        </mxCell>
        <mxCell id="92K4Akr5qivPyy2-ghK2-45" value="no" style="text;html=1;align=center;verticalAlign=middle;resizable=0;points=[];autosize=1;strokeColor=none;fillColor=none;" vertex="1" parent="1">
          <mxGeometry x="40" y="385" width="40" height="30" as="geometry" />
        </mxCell>
        <mxCell id="92K4Akr5qivPyy2-ghK2-46" value="targetArray[targetcount]=&lt;br&gt;arra[i]&lt;br&gt;targetCount++" style="rounded=0;whiteSpace=wrap;html=1;" vertex="1" parent="1">
          <mxGeometry x="41" y="490" width="139" height="60" as="geometry" />
        </mxCell>
        <mxCell id="92K4Akr5qivPyy2-ghK2-48" value="" style="endArrow=classic;html=1;rounded=0;exitX=0;exitY=0.5;exitDx=0;exitDy=0;" edge="1" parent="1" source="92K4Akr5qivPyy2-ghK2-46">
          <mxGeometry width="50" height="50" relative="1" as="geometry">
            <mxPoint x="40" y="490" as="sourcePoint" />
            <mxPoint x="40" y="300" as="targetPoint" />
            <Array as="points">
              <mxPoint x="20" y="520" />
              <mxPoint x="20" y="300" />
            </Array>
          </mxGeometry>
        </mxCell>
        <mxCell id="92K4Akr5qivPyy2-ghK2-49" value="yes" style="text;html=1;align=center;verticalAlign=middle;resizable=0;points=[];autosize=1;strokeColor=none;fillColor=none;" vertex="1" parent="1">
          <mxGeometry x="116" y="460" width="40" height="30" as="geometry" />
        </mxCell>
        <mxCell id="92K4Akr5qivPyy2-ghK2-54" value="" style="edgeStyle=orthogonalEdgeStyle;rounded=0;orthogonalLoop=1;jettySize=auto;html=1;" edge="1" parent="1" source="92K4Akr5qivPyy2-ghK2-50" target="92K4Akr5qivPyy2-ghK2-53">
          <mxGeometry relative="1" as="geometry" />
        </mxCell>
        <mxCell id="92K4Akr5qivPyy2-ghK2-50" value="i = 0;&lt;br&gt;i &amp;lt; targetCount;&lt;br&gt;i++" style="rhombus;whiteSpace=wrap;html=1;" vertex="1" parent="1">
          <mxGeometry x="71" y="690" width="80" height="80" as="geometry" />
        </mxCell>
        <mxCell id="92K4Akr5qivPyy2-ghK2-52" value="" style="edgeStyle=orthogonalEdgeStyle;rounded=0;orthogonalLoop=1;jettySize=auto;html=1;" edge="1" parent="1" source="92K4Akr5qivPyy2-ghK2-51" target="92K4Akr5qivPyy2-ghK2-50">
          <mxGeometry relative="1" as="geometry" />
        </mxCell>
        <mxCell id="92K4Akr5qivPyy2-ghK2-51" value="resultArray = new array[targetCount]" style="rounded=0;whiteSpace=wrap;html=1;" vertex="1" parent="1">
          <mxGeometry x="51" y="600" width="120" height="60" as="geometry" />
        </mxCell>
        <mxCell id="92K4Akr5qivPyy2-ghK2-53" value="resultArray[i] =&lt;br style=&quot;border-color: var(--border-color);&quot;&gt;targetArray[i]&lt;br style=&quot;border-color: var(--border-color);&quot;&gt;" style="rounded=0;whiteSpace=wrap;html=1;" vertex="1" parent="1">
          <mxGeometry x="41" y="800" width="139" height="40" as="geometry" />
        </mxCell>
        <mxCell id="92K4Akr5qivPyy2-ghK2-55" value="" style="endArrow=classic;html=1;rounded=0;exitX=0;exitY=0.5;exitDx=0;exitDy=0;entryX=0;entryY=0.5;entryDx=0;entryDy=0;" edge="1" parent="1" source="92K4Akr5qivPyy2-ghK2-53" target="92K4Akr5qivPyy2-ghK2-50">
          <mxGeometry width="50" height="50" relative="1" as="geometry">
            <mxPoint x="390" y="900" as="sourcePoint" />
            <mxPoint x="440" y="850" as="targetPoint" />
            <Array as="points">
              <mxPoint x="30" y="820" />
              <mxPoint x="30" y="730" />
            </Array>
          </mxGeometry>
        </mxCell>
        <mxCell id="92K4Akr5qivPyy2-ghK2-57" value="" style="edgeStyle=orthogonalEdgeStyle;rounded=0;orthogonalLoop=1;jettySize=auto;html=1;" edge="1" parent="1" source="92K4Akr5qivPyy2-ghK2-56" target="92K4Akr5qivPyy2-ghK2-42">
          <mxGeometry relative="1" as="geometry" />
        </mxCell>
        <mxCell id="92K4Akr5qivPyy2-ghK2-56" value="return resultArray" style="rounded=0;whiteSpace=wrap;html=1;" vertex="1" parent="1">
          <mxGeometry x="51" y="870" width="120" height="60" as="geometry" />
        </mxCell>
        <mxCell id="92K4Akr5qivPyy2-ghK2-58" value="" style="endArrow=classic;html=1;rounded=0;exitX=1;exitY=0.5;exitDx=0;exitDy=0;entryX=1;entryY=0.5;entryDx=0;entryDy=0;" edge="1" parent="1" source="92K4Akr5qivPyy2-ghK2-50" target="92K4Akr5qivPyy2-ghK2-56">
          <mxGeometry width="50" height="50" relative="1" as="geometry">
            <mxPoint x="390" y="800" as="sourcePoint" />
            <mxPoint x="440" y="750" as="targetPoint" />
            <Array as="points">
              <mxPoint x="200" y="730" />
              <mxPoint x="200" y="900" />
            </Array>
          </mxGeometry>
        </mxCell>
        <mxCell id="92K4Akr5qivPyy2-ghK2-59" value="yes" style="text;html=1;align=center;verticalAlign=middle;resizable=0;points=[];autosize=1;strokeColor=none;fillColor=none;" vertex="1" parent="1">
          <mxGeometry x="111" y="770" width="40" height="30" as="geometry" />
        </mxCell>
        <mxCell id="92K4Akr5qivPyy2-ghK2-60" value="no" style="text;html=1;align=center;verticalAlign=middle;resizable=0;points=[];autosize=1;strokeColor=none;fillColor=none;" vertex="1" parent="1">
          <mxGeometry x="150" y="705" width="40" height="30" as="geometry" />
        </mxCell>
        <mxCell id="92K4Akr5qivPyy2-ghK2-61" value="no" style="text;html=1;align=center;verticalAlign=middle;resizable=0;points=[];autosize=1;strokeColor=none;fillColor=none;" vertex="1" parent="1">
          <mxGeometry x="653" y="885" width="40" height="30" as="geometry" />
        </mxCell>
        <mxCell id="92K4Akr5qivPyy2-ghK2-62" value="no" style="text;html=1;align=center;verticalAlign=middle;resizable=0;points=[];autosize=1;strokeColor=none;fillColor=none;" vertex="1" parent="1">
          <mxGeometry x="653" y="270" width="40" height="30" as="geometry" />
        </mxCell>
        <mxCell id="92K4Akr5qivPyy2-ghK2-63" value="no" style="text;html=1;align=center;verticalAlign=middle;resizable=0;points=[];autosize=1;strokeColor=none;fillColor=none;" vertex="1" parent="1">
          <mxGeometry x="156" y="270" width="40" height="30" as="geometry" />
        </mxCell>
        <mxCell id="92K4Akr5qivPyy2-ghK2-64" value="основной модуль&lt;br&gt;" style="text;html=1;align=center;verticalAlign=middle;resizable=0;points=[];autosize=1;strokeColor=none;fillColor=none;" vertex="1" parent="1">
          <mxGeometry x="49.5" y="1200" width="120" height="30" as="geometry" />
        </mxCell>
        <mxCell id="92K4Akr5qivPyy2-ghK2-67" value="" style="edgeStyle=orthogonalEdgeStyle;rounded=0;orthogonalLoop=1;jettySize=auto;html=1;" edge="1" parent="1" source="92K4Akr5qivPyy2-ghK2-65" target="92K4Akr5qivPyy2-ghK2-68">
          <mxGeometry relative="1" as="geometry">
            <mxPoint x="110.5" y="1370" as="targetPoint" />
          </mxGeometry>
        </mxCell>
        <mxCell id="92K4Akr5qivPyy2-ghK2-65" value="start" style="rounded=1;whiteSpace=wrap;html=1;" vertex="1" parent="1">
          <mxGeometry x="50.5" y="1230" width="120" height="60" as="geometry" />
        </mxCell>
        <mxCell id="92K4Akr5qivPyy2-ghK2-70" value="" style="edgeStyle=orthogonalEdgeStyle;rounded=0;orthogonalLoop=1;jettySize=auto;html=1;" edge="1" parent="1" source="92K4Akr5qivPyy2-ghK2-68" target="92K4Akr5qivPyy2-ghK2-69">
          <mxGeometry relative="1" as="geometry" />
        </mxCell>
        <mxCell id="92K4Akr5qivPyy2-ghK2-68" value="lenth" style="shape=parallelogram;perimeter=parallelogramPerimeter;whiteSpace=wrap;html=1;fixedSize=1;" vertex="1" parent="1">
          <mxGeometry x="49.5" y="1320" width="120" height="60" as="geometry" />
        </mxCell>
        <mxCell id="92K4Akr5qivPyy2-ghK2-72" value="" style="edgeStyle=orthogonalEdgeStyle;rounded=0;orthogonalLoop=1;jettySize=auto;html=1;" edge="1" parent="1" source="92K4Akr5qivPyy2-ghK2-69" target="92K4Akr5qivPyy2-ghK2-71">
          <mxGeometry relative="1" as="geometry" />
        </mxCell>
        <mxCell id="92K4Akr5qivPyy2-ghK2-69" value="array = вводим массив (lenth)" style="shape=process;whiteSpace=wrap;html=1;backgroundOutline=1;" vertex="1" parent="1">
          <mxGeometry x="29.25" y="1420" width="160.5" height="60" as="geometry" />
        </mxCell>
        <mxCell id="92K4Akr5qivPyy2-ghK2-75" value="" style="edgeStyle=orthogonalEdgeStyle;rounded=0;orthogonalLoop=1;jettySize=auto;html=1;" edge="1" parent="1" source="92K4Akr5qivPyy2-ghK2-71" target="92K4Akr5qivPyy2-ghK2-74">
          <mxGeometry relative="1" as="geometry" />
        </mxCell>
        <mxCell id="92K4Akr5qivPyy2-ghK2-71" value="выводим массив (array)" style="shape=process;whiteSpace=wrap;html=1;backgroundOutline=1;" vertex="1" parent="1">
          <mxGeometry x="29.75" y="1520" width="160.5" height="60" as="geometry" />
        </mxCell>
        <mxCell id="92K4Akr5qivPyy2-ghK2-78" value="" style="edgeStyle=orthogonalEdgeStyle;rounded=0;orthogonalLoop=1;jettySize=auto;html=1;" edge="1" parent="1" source="92K4Akr5qivPyy2-ghK2-73" target="92K4Akr5qivPyy2-ghK2-77">
          <mxGeometry relative="1" as="geometry" />
        </mxCell>
        <mxCell id="92K4Akr5qivPyy2-ghK2-73" value="resultArray = &lt;br&gt;вернуть очищенный массив (array, count)" style="shape=process;whiteSpace=wrap;html=1;backgroundOutline=1;" vertex="1" parent="1">
          <mxGeometry x="29.25" y="1723.5" width="160.5" height="60" as="geometry" />
        </mxCell>
        <mxCell id="92K4Akr5qivPyy2-ghK2-74" value="count&amp;nbsp;" style="shape=parallelogram;perimeter=parallelogramPerimeter;whiteSpace=wrap;html=1;fixedSize=1;" vertex="1" parent="1">
          <mxGeometry x="49.5" y="1620" width="120" height="60" as="geometry" />
        </mxCell>
        <mxCell id="92K4Akr5qivPyy2-ghK2-76" value="" style="endArrow=classic;html=1;rounded=0;exitX=0.5;exitY=1;exitDx=0;exitDy=0;entryX=0.5;entryY=0;entryDx=0;entryDy=0;" edge="1" parent="1" source="92K4Akr5qivPyy2-ghK2-74" target="92K4Akr5qivPyy2-ghK2-73">
          <mxGeometry width="50" height="50" relative="1" as="geometry">
            <mxPoint x="390" y="1370" as="sourcePoint" />
            <mxPoint x="440" y="1320" as="targetPoint" />
          </mxGeometry>
        </mxCell>
        <mxCell id="92K4Akr5qivPyy2-ghK2-77" value="выводим массив (resultArray)" style="shape=process;whiteSpace=wrap;html=1;backgroundOutline=1;" vertex="1" parent="1">
          <mxGeometry x="29.75" y="1820" width="160.5" height="60" as="geometry" />
        </mxCell>
      </root>
    </mxGraphModel>
  </diagram>
</mxfile>
